<?xml version="1.0" encoding="UTF-8"?>
<svg width="31px" height="11px" viewBox="0 0 31 11" version="1.1" xmlns="http://www.w3.org/2000/svg" xmlns:xlink="http://www.w3.org/1999/xlink">
    <!-- Generator: Sketch 58 (84663) - https://sketch.com -->
    <title>Shape</title>
    <desc>Created with Sketch.</desc>
    <g id="Page-1" stroke="none" stroke-width="1" fill="none" fill-rule="evenodd">
        <g id="landing" transform="translate(-852.000000, -5584.000000)" fill="#FFFFFF" fill-rule="nonzero">
            <g id="Group" transform="translate(697.000000, 5559.000000)">
                <path d="M184.933826,34.7990431 C184.933826,34.1770335 185.082717,33.3636364 184.933826,32.7416268 C184.834565,32.3588517 184.437521,32.1674641 184.189369,31.9282297 C183.792325,31.5933014 183.395281,31.2105263 182.998237,30.8755981 C181.509323,29.5837321 180.020409,28.291866 178.531495,27 C178.680386,27.1435407 178.531495,28.1004785 178.531495,28.291866 C178.531495,28.4832536 178.382603,29.4401914 178.531495,29.5837321 C179.275952,30.2535885 180.070039,30.8755981 180.814497,31.5454545 C172.575837,30.2535885 164.287548,28.9617225 156.048889,27.7177033 C156.14815,27.7177033 155.899997,30.2535885 156.048889,30.2535885 C163.543091,31.4019139 171.086923,32.5502392 178.630756,33.7464115 C177.638146,33.8899522 176.595906,34.1291866 175.652927,34.4641148 C175.504036,34.5119617 175.603297,35.2296651 175.652927,35.8516746 C175.652927,36.2344498 175.652927,36.6172249 175.652927,37 C175.801818,36.9521531 176.00034,36.9043062 176.149232,36.8564593 C176.149232,36.8564593 176.198862,36.8564593 176.198862,36.8086124 C177.787037,36.2822967 179.474474,36.138756 181.16191,35.9952153 C182.104889,35.8995215 183.047868,35.8516746 183.990847,35.6602871 C184.536782,35.5645933 184.784935,35.5167464 184.884196,35.1818182 C184.884196,35.2296651 184.933826,35.2296651 184.933826,35.277512 C184.933826,35.1818182 184.933826,35.0861244 184.933826,34.9904306 C184.933826,34.9425837 184.933826,34.84689 184.933826,34.7990431 Z M182.849346,33.3157895 C182.799716,33.3157895 182.799716,33.3157895 182.750085,33.3157895 C182.750085,33.2679426 182.750085,33.2200957 182.750085,33.2200957 C182.750085,33.2200957 182.799716,33.2679426 182.849346,33.3157895 C182.849346,33.3157895 182.849346,33.3157895 182.849346,33.3157895 Z" id="Shape" transform="translate(170.500000, 32.000000) rotate(-10.000000) translate(-170.500000, -32.000000) "></path>
            </g>
        </g>
    </g>
</svg>