<?xml version="1.0" encoding="UTF-8"?>
<svg width="195px" height="124px" viewBox="0 0 195 124" version="1.1" xmlns="http://www.w3.org/2000/svg" xmlns:xlink="http://www.w3.org/1999/xlink">
    <!-- Generator: Sketch 58 (84663) - https://sketch.com -->
    <title>Group 20</title>
    <desc>Created with Sketch.</desc>
    <g id="Page-1" stroke="none" stroke-width="1" fill="none" fill-rule="evenodd">
        <g id="landing" transform="translate(-207.000000, -4012.000000)" fill="#BDC6D2">
            <g id="Group-20" transform="translate(207.000000, 4012.000000)">
                <g id="Group-17" transform="translate(0.000000, 10.000000)">
                    <circle id="Oval" cx="3" cy="3" r="3"></circle>
                    <circle id="Oval-Copy-2" cx="3" cy="24.5" r="3"></circle>
                    <circle id="Oval-Copy-3" cx="3" cy="46" r="3"></circle>
                    <circle id="Oval-Copy-4" cx="3" cy="67.5" r="3"></circle>
                    <circle id="Oval-Copy-5" cx="3" cy="89" r="3"></circle>
                    <circle id="Oval-Copy-6" cx="3" cy="110.5" r="3"></circle>
                </g>
                <g id="Group-17" transform="translate(21.000000, 0.000000)">
                    <circle id="Oval" cx="3" cy="3" r="3"></circle>
                    <circle id="Oval-Copy-2" cx="3" cy="24.5" r="3"></circle>
                    <circle id="Oval-Copy-3" cx="3" cy="46" r="3"></circle>
                    <circle id="Oval-Copy-4" cx="3" cy="67.5" r="3"></circle>
                    <circle id="Oval-Copy-5" cx="3" cy="89" r="3"></circle>
                    <circle id="Oval-Copy-6" cx="3" cy="110.5" r="3"></circle>
                </g>
                <g id="Group-17" transform="translate(42.000000, 10.000000)">
                    <circle id="Oval" cx="3" cy="3" r="3"></circle>
                    <circle id="Oval-Copy-2" cx="3" cy="24.5" r="3"></circle>
                    <circle id="Oval-Copy-3" cx="3" cy="46" r="3"></circle>
                    <circle id="Oval-Copy-4" cx="3" cy="67.5" r="3"></circle>
                    <circle id="Oval-Copy-5" cx="3" cy="89" r="3"></circle>
                    <circle id="Oval-Copy-6" cx="3" cy="110.5" r="3"></circle>
                </g>
                <g id="Group-17" transform="translate(63.000000, 0.000000)">
                    <circle id="Oval" cx="3" cy="3" r="3"></circle>
                    <circle id="Oval-Copy-2" cx="3" cy="24.5" r="3"></circle>
                    <circle id="Oval-Copy-3" cx="3" cy="46" r="3"></circle>
                    <circle id="Oval-Copy-4" cx="3" cy="67.5" r="3"></circle>
                    <circle id="Oval-Copy-5" cx="3" cy="89" r="3"></circle>
                    <circle id="Oval-Copy-6" cx="3" cy="110.5" r="3"></circle>
                </g>
                <g id="Group-17" transform="translate(84.000000, 10.000000)">
                    <circle id="Oval" cx="3" cy="3" r="3"></circle>
                    <circle id="Oval-Copy-2" cx="3" cy="24.5" r="3"></circle>
                    <circle id="Oval-Copy-3" cx="3" cy="46" r="3"></circle>
                    <circle id="Oval-Copy-4" cx="3" cy="67.5" r="3"></circle>
                    <circle id="Oval-Copy-5" cx="3" cy="89" r="3"></circle>
                    <circle id="Oval-Copy-6" cx="3" cy="110.5" r="3"></circle>
                </g>
                <g id="Group-17" transform="translate(105.000000, 0.000000)">
                    <circle id="Oval" cx="3" cy="3" r="3"></circle>
                    <circle id="Oval-Copy-2" cx="3" cy="24.5" r="3"></circle>
                    <circle id="Oval-Copy-3" cx="3" cy="46" r="3"></circle>
                    <circle id="Oval-Copy-4" cx="3" cy="67.5" r="3"></circle>
                    <circle id="Oval-Copy-5" cx="3" cy="89" r="3"></circle>
                    <circle id="Oval-Copy-6" cx="3" cy="110.5" r="3"></circle>
                </g>
                <g id="Group-17" transform="translate(126.000000, 10.000000)">
                    <circle id="Oval" cx="3" cy="3" r="3"></circle>
                    <circle id="Oval-Copy-2" cx="3" cy="24.5" r="3"></circle>
                    <circle id="Oval-Copy-3" cx="3" cy="46" r="3"></circle>
                    <circle id="Oval-Copy-4" cx="3" cy="67.5" r="3"></circle>
                    <circle id="Oval-Copy-5" cx="3" cy="89" r="3"></circle>
                    <circle id="Oval-Copy-6" cx="3" cy="110.5" r="3"></circle>
                </g>
                <g id="Group-17" transform="translate(147.000000, 0.000000)">
                    <circle id="Oval" cx="3" cy="3" r="3"></circle>
                    <circle id="Oval-Copy-2" cx="3" cy="24.5" r="3"></circle>
                    <circle id="Oval-Copy-3" cx="3" cy="46" r="3"></circle>
                    <circle id="Oval-Copy-4" cx="3" cy="67.5" r="3"></circle>
                    <circle id="Oval-Copy-5" cx="3" cy="89" r="3"></circle>
                    <circle id="Oval-Copy-6" cx="3" cy="110.5" r="3"></circle>
                </g>
                <g id="Group-17" transform="translate(168.000000, 10.000000)">
                    <circle id="Oval" cx="3" cy="3" r="3"></circle>
                    <circle id="Oval-Copy-2" cx="3" cy="24.5" r="3"></circle>
                    <circle id="Oval-Copy-3" cx="3" cy="46" r="3"></circle>
                    <circle id="Oval-Copy-4" cx="3" cy="67.5" r="3"></circle>
                    <circle id="Oval-Copy-5" cx="3" cy="89" r="3"></circle>
                    <circle id="Oval-Copy-6" cx="3" cy="110.5" r="3"></circle>
                </g>
                <g id="Group-17" transform="translate(189.000000, 0.000000)">
                    <circle id="Oval" cx="3" cy="3" r="3"></circle>
                    <circle id="Oval-Copy-2" cx="3" cy="24.5" r="3"></circle>
                    <circle id="Oval-Copy-3" cx="3" cy="46" r="3"></circle>
                    <circle id="Oval-Copy-4" cx="3" cy="67.5" r="3"></circle>
                    <circle id="Oval-Copy-5" cx="3" cy="89" r="3"></circle>
                    <circle id="Oval-Copy-6" cx="3" cy="110.5" r="3"></circle>
                </g>
            </g>
        </g>
    </g>
</svg>