<?xml version="1.0" encoding="UTF-8"?>
<svg width="18px" height="18px" viewBox="0 0 18 18" version="1.1" xmlns="http://www.w3.org/2000/svg" xmlns:xlink="http://www.w3.org/1999/xlink">
    <!-- Generator: Sketch 58 (84663) - https://sketch.com -->
    <title>insta</title>
    <desc>Created with Sketch.</desc>
    <g id="Page-1" stroke="none" stroke-width="1" fill="none" fill-rule="evenodd">
        <g id="landing" transform="translate(-289.000000, -6020.000000)" fill="#5A6482" fill-rule="nonzero">
            <path d="M295.000727,6029 C295.000727,6027.34321 296.343511,6025.99976 298.000364,6025.99976 C299.657216,6025.99976 301.000727,6027.34321 301.000727,6029 C301.000727,6030.65679 299.657216,6032.00024 298.000364,6032.00024 C296.343511,6032.00024 295.000727,6030.65679 295.000727,6029 M293.378771,6029 C293.378771,6031.55242 295.447837,6033.62141 298.000364,6033.62141 C300.55289,6033.62141 302.621956,6031.55242 302.621956,6029 C302.621956,6026.44758 300.55289,6024.37859 298.000364,6024.37859 C295.447837,6024.37859 293.378771,6026.44758 293.378771,6029 M301.724827,6024.1954 C301.724827,6024.79152 302.208288,6025.27569 302.805162,6025.27569 C303.401309,6025.27569 303.885496,6024.79152 303.885496,6024.1954 C303.885496,6023.59927 303.402036,6023.11583 302.805162,6023.11583 C302.208288,6023.11583 301.724827,6023.59927 301.724827,6024.1954 M294.363868,6036.32577 C293.486369,6036.28578 293.009451,6036.13966 292.692475,6036.01607 C292.272265,6035.8525 291.972737,6035.65767 291.657216,6035.34289 C291.342421,6035.02811 291.146856,6034.72859 290.984006,6034.3084 C290.860414,6033.99144 290.714286,6033.51454 290.6743,6032.63708 C290.63068,6031.68837 290.621956,6031.40339 290.621956,6029 C290.621956,6026.59661 290.631407,6026.31236 290.6743,6025.36292 C290.714286,6024.48546 290.861141,6024.00929 290.984006,6023.6916 C291.147583,6023.27141 291.342421,6022.97189 291.657216,6022.65638 C291.97201,6022.3416 292.271538,6022.14604 292.692475,6021.9832 C293.009451,6021.85961 293.486369,6021.71349 294.363868,6021.67351 C295.312614,6021.62989 295.597601,6021.62116 298.000364,6021.62116 C300.403853,6021.62116 300.688113,6021.63061 301.637586,6021.67351 C302.515085,6021.71349 302.991276,6021.86034 303.308979,6021.9832 C303.729189,6022.14604 304.028717,6022.3416 304.344238,6022.65638 C304.659033,6022.97116 304.853871,6023.27141 305.017448,6023.6916 C305.14104,6024.00856 305.287168,6024.48546 305.327154,6025.36292 C305.370774,6026.31236 305.379498,6026.59661 305.379498,6029 C305.379498,6031.40267 305.370774,6031.68764 305.327154,6032.63708 C305.287168,6033.51454 305.140313,6033.99144 305.017448,6034.3084 C304.853871,6034.72859 304.659033,6035.02811 304.344238,6035.34289 C304.029444,6035.65767 303.729189,6035.8525 303.308979,6036.01607 C302.992003,6036.13966 302.515085,6036.28578 301.637586,6036.32577 C300.68884,6036.36939 300.403853,6036.37811 298.000364,6036.37811 C295.597601,6036.37811 295.312614,6036.36939 294.363868,6036.32577 M294.289713,6020.05452 C293.331516,6020.09814 292.677208,6020.25008 292.105053,6020.47254 C291.513268,6020.70226 291.011632,6021.0105 290.510723,6021.51066 C290.010542,6022.01082 289.70229,6022.51244 289.472555,6023.10493 C289.250091,6023.67706 289.098146,6024.33134 289.054526,6025.2895 C289.010178,6026.24911 289,6026.5559 289,6029 C289,6031.4441 289.010178,6031.75089 289.054526,6032.7105 C289.098146,6033.66866 289.250091,6034.32294 289.472555,6034.89507 C289.70229,6035.48683 290.009815,6035.98918 290.510723,6036.48934 C291.010905,6036.9895 291.512541,6037.29701 292.105053,6037.52746 C292.677935,6037.74992 293.331516,6037.90186 294.289713,6037.94548 C295.250091,6037.9891 295.556161,6038 298.000364,6038 C300.445293,6038 300.751363,6037.98982 301.711014,6037.94548 C302.669211,6037.90186 303.323519,6037.74992 303.895674,6037.52746 C304.487459,6037.29701 304.989095,6036.9895 305.490004,6036.48934 C305.990185,6035.98918 306.29771,6035.48683 306.528172,6034.89507 C306.750636,6034.32294 306.903308,6033.66866 306.946201,6032.7105 C306.989822,6031.75016 307,6031.4441 307,6029 C307,6026.5559 306.989822,6026.24911 306.946201,6025.2895 C306.902581,6024.33134 306.750636,6023.67706 306.528172,6023.10493 C306.29771,6022.51317 305.990185,6022.01155 305.490004,6021.51066 C304.989822,6021.0105 304.487459,6020.70226 303.896401,6020.47254 C303.323519,6020.25008 302.669211,6020.09742 301.711741,6020.05452 C300.75209,6020.0109 300.445293,6020 298.001091,6020 C295.556161,6020 295.250091,6020.01018 294.289713,6020.05452" id="insta"></path>
        </g>
    </g>
</svg>