<?xml version="1.0" encoding="utf-8"?>
<!-- Generator: Adobe Illustrator 16.0.0, SVG Export Plug-In . SVG Version: 6.00 Build 0)  -->
<!DOCTYPE svg PUBLIC "-//W3C//DTD SVG 1.1//EN" "http://www.w3.org/Graphics/SVG/1.1/DTD/svg11.dtd">
<svg version="1.1" id="Layer_1" xmlns="http://www.w3.org/2000/svg" xmlns:xlink="http://www.w3.org/1999/xlink" x="0px" y="0px"
	 width="95.027px" height="35px" viewBox="258.486 94.7 95.027 35" enable-background="new 258.486 94.7 95.027 35"
	 xml:space="preserve">
<path fill="#F46752" d="M266.454,94.7v14.592c1.4-1.018,2.71-1.788,3.939-2.297c1.228-0.509,2.374-0.763,3.442-0.763
	c2.323,0,4.257,1.011,5.797,3.029c1.54,2.017,2.31,4.582,2.31,7.694c0,3.583-1.018,6.51-3.055,8.788
	c-2.036,2.278-4.652,3.417-7.859,3.417c-0.814,0-1.616-0.134-2.405-0.4c-0.789-0.268-1.508-0.662-2.17-1.178l-5.797,1.674v-26.002
	c0-1.336-0.166-2.507-0.497-3.513c-0.331-0.999-0.891-2.056-1.673-3.156L266.454,94.7z M266.454,126.021
	c0.566,0.191,1.113,0.331,1.635,0.439c0.528,0.102,1.012,0.152,1.451,0.152c1.947,0,3.519-0.789,4.715-2.367s1.788-3.69,1.788-6.325
	c0-2.622-0.598-4.684-1.788-6.186c-1.196-1.502-2.825-2.253-4.9-2.253c-0.344,0-0.732,0.026-1.165,0.07s-1.012,0.133-1.731,0.261
	v16.208H266.454L266.454,126.021z"/>
<path fill="#F46752" d="M304.094,116.762h-14.191v0.376c0,2.952,0.776,5.198,2.335,6.726c1.553,1.534,3.818,2.298,6.79,2.298
	c0.662,0,1.419-0.045,2.272-0.128c0.859-0.089,1.839-0.216,2.959-0.388c-1.381,1.272-2.864,2.233-4.442,2.889
	c-1.578,0.649-3.239,0.98-4.983,0.98c-3.302,0-5.937-1.031-7.91-3.087s-2.959-4.817-2.959-8.272c0-3.506,1.031-6.37,3.099-8.591
	c2.068-2.221,4.734-3.334,7.999-3.334c2.793,0,5.001,0.917,6.612,2.756c1.61,1.839,2.418,4.352,2.418,7.541V116.762L304.094,116.762
	z M297.915,114.732c0-2.087-0.318-3.709-0.955-4.855s-1.534-1.718-2.698-1.718c-1.381,0-2.443,0.656-3.182,1.966
	c-0.738,1.311-1.126,3.233-1.152,5.765L297.915,114.732z"/>
<path fill="#F46752" d="M313.761,94.7v27.224c0,1.604,0.146,2.901,0.438,3.9s0.744,2.018,1.355,3.055h-9.361
	c0.611-1.069,1.063-2.106,1.356-3.124c0.292-1.012,0.438-2.291,0.438-3.831v-18.671c0-1.336-0.172-2.507-0.509-3.513
	c-0.344-0.999-0.903-2.056-1.687-3.156L313.761,94.7z"/>
<path fill="#F46752" d="M326.062,94.7v27.224c0,1.604,0.146,2.901,0.438,3.9c0.293,0.999,0.745,2.018,1.355,3.055h-9.354
	c0.611-1.069,1.063-2.106,1.355-3.124c0.293-1.012,0.439-2.291,0.439-3.831v-18.671c0-1.336-0.173-2.507-0.51-3.513
	c-0.344-0.999-0.903-2.056-1.692-3.156L326.062,94.7z"/>
<path fill="#F46752" d="M330.49,117.915c0-3.538,1.075-6.37,3.227-8.496c2.15-2.132,5.021-3.194,8.604-3.194
	c3.442,0,6.166,1.05,8.177,3.144c2.012,2.1,3.017,4.932,3.017,8.496c0,3.595-1.069,6.471-3.207,8.616
	c-2.138,2.145-5.002,3.22-8.604,3.22c-3.442,0-6.173-1.063-8.19-3.182C331.502,124.399,330.49,121.529,330.49,117.915z
	 M341.944,108.019c-1.571,0-2.806,0.866-3.71,2.59c-0.903,1.731-1.354,4.118-1.354,7.166c0,3.124,0.464,5.587,1.394,7.388
	c0.929,1.802,2.183,2.699,3.773,2.699c1.616,0,2.883-0.866,3.792-2.604c0.91-1.737,1.368-4.181,1.368-7.344
	c0-3.124-0.464-5.555-1.394-7.292C344.885,108.885,343.6,108.019,341.944,108.019z"/>
</svg>
