<?xml version="1.0" encoding="UTF-8"?>
<svg width="25px" height="17px" viewBox="0 0 25 17" version="1.1" xmlns="http://www.w3.org/2000/svg" xmlns:xlink="http://www.w3.org/1999/xlink">
    <!-- Generator: Sketch 58 (84663) - https://sketch.com -->
    <title>youtube</title>
    <desc>Created with Sketch.</desc>
    <g id="Page-1" stroke="none" stroke-width="1" fill="none" fill-rule="evenodd">
        <g id="landing" transform="translate(-331.000000, -6020.000000)" fill="#5A6482" fill-rule="nonzero">
            <path d="M344.05386,6036.97773 L338.924829,6036.88552 C337.264162,6036.85338 335.599363,6036.91753 333.971258,6036.58463 C331.494535,6036.08725 331.319075,6033.64848 331.135475,6031.60282 C330.882493,6028.72688 330.980429,6025.79873 331.45784,6022.9468 C331.727354,6021.34656 332.788001,6020.39169 334.428254,6020.28778 C339.965313,6019.91068 345.539193,6019.95537 351.063978,6020.1313 C351.647466,6020.14743 352.234961,6020.23558 352.810308,6020.33592 C355.650349,6020.8253 355.719606,6023.58896 355.903707,6025.91545 C356.087308,6028.26594 356.009785,6030.62849 355.658866,6032.96298 C355.377329,6034.89587 354.838676,6036.51679 352.565467,6036.67327 C349.717285,6036.87788 346.934478,6037.04261 344.078282,6036.99016 C344.078407,6036.97773 344.062001,6036.97773 344.05386,6036.97773 Z M341.038485,6032.08419 C343.184828,6030.87275 345.290218,6029.6815 347.424287,6028.47819 C345.273937,6027.26674 343.172554,6026.07549 341.038485,6024.87218 L341.038485,6032.08419 Z" id="youtube"></path>
        </g>
    </g>
</svg>